<svg xmlns="http://www.w3.org/2000/svg" width="725.297221665231" height="738.0974194521701" style="background: rgba(0, 0, 0, 0);"><rect width="100%" height="100%" fill="rgba(0,0,0,0)"/><g transform="translate(362.64862060546875,369.0487060546875) scale(1) translate(2.11579698423364,4.0457820968520934)"><polyline points="-21.2981024450316,21.777086141563515 -83.74723055410115,100.07244282634275" stroke="#A5ABB6" stroke-width="1" fill="none"/><polygon points="-87.80033734509952,105.15401003939454 -79.4521148274585,100.3004360164758 -84.92457182612966,95.93555178001603" fill="#A5ABB6"/><text x="-52.52266649956638" y="57.92476448395313" text-anchor="middle" dominant-baseline="alphabetic" font-size="6" font-family="&quot;Open Sans&quot;, sans-serif" fill="#6f757eff" transform="rotate(-51.42380127981356,-52.52266649956638,60.92476448395313)"><tspan>IN_GENRE</tspan></text><polyline points="-9.960493278359442,132.99287291412296 -4.945029069511658,32.54130695460914" stroke="#A5ABB6" stroke-width="1" fill="none"/><polygon points="-4.620893177987824,26.04939383721254 -8.565342244849763,34.863661904325774 -1.5740511953457315,35.21273132596682" fill="#A5ABB6"/><text x="-7.452761173935549" y="79.76708993436606" text-anchor="middle" dominant-baseline="alphabetic" font-size="6" font-family="&quot;Open Sans&quot;, sans-serif" fill="#6f757eff" transform="rotate(-87.14164241850892,-7.452761173935549,82.76708993436606)"><tspan>DIRECTED</tspan></text><polyline points="71.72957960943829,110.88147050251753 17.016272806403354,27.230291517840648" stroke="#A5ABB6" stroke-width="1" fill="none"/><polygon points="13.458318114974372,21.790534316113856 15.455616886792383,31.238327583120405 21.313816950190464,27.406684069273805" fill="#A5ABB6"/><text x="44.37292620792082" y="66.05588101017909" text-anchor="middle" dominant-baseline="alphabetic" font-size="6" font-family="&quot;Open Sans&quot;, sans-serif" fill="#6f757eff" transform="rotate(56.81270620924909,44.37292620792082,69.05588101017909)"><tspan>ACTED_IN</tspan></text><path d="M125.28279008041518,49.589293445168394 Q74.65384115372747,34.46949508943728,52.37512720419888,24.06837991101298 Q30.096413254670292,13.667264732588677,30.096413254670292,13.667264732588677" stroke="#A5ABB6" stroke-width="1" fill="none"/><polygon points="24.206666854880623,10.917557958009864 30.881088991354652,17.89624616885189 33.842311671670295,11.553442353693782" fill="#A5ABB6"/><text x="76.1717214106351" y="30.04888708915791" text-anchor="middle" dominant-baseline="alphabetic" font-size="6" font-family="&quot;Open Sans&quot;, sans-serif" fill="#6f757eff" transform="rotate(20.86002101175976,76.1717214106351,33.04888708915791)"><tspan>WATCHED</tspan></text><path d="M128.54613382651686,41.02911644339042 Q79.76907988922447,18.26820871760693,56.681728434752756,11.379093313010348 Q33.594376980281034,4.489977908413765,33.594376980281034,4.489977908413765" stroke="#A5ABB6" stroke-width="1" fill="none"/><polygon points="27.365758858825593,2.63139880138687 34.989225969364796,8.558687322669348 36.990772700009146,1.8509447303327193" fill="#A5ABB6"/><text x="80.41966764631171" y="17.513877946754512" text-anchor="middle" dominant-baseline="alphabetic" font-size="6" font-family="&quot;Open Sans&quot;, sans-serif" fill="#6f757eff" transform="rotate(20.86002101175976,80.41966764631171,20.513877946754512)"><tspan>WATCHED</tspan></text><path d="M131.6234991058839,-33.32476909944939 Q87.70902971592731,-1.5258875986950358,61.13935943453744,-3.5707562046859405 Q34.569689153147564,-5.615624810676845,34.569689153147564,-5.615624810676845" stroke="#A5ABB6" stroke-width="1" fill="none"/><polygon points="28.088854546836203,-6.114406131134101 36.793743290713415,-1.934105668641016 37.33089240505199,-8.913466013899402" fill="#A5ABB6"/><text x="85.40281192272153" y="-13.498042276879076" text-anchor="middle" dominant-baseline="alphabetic" font-size="6" font-family="&quot;Open Sans&quot;, sans-serif" fill="#6f757eff" transform="rotate(-15.081741676247509,85.40281192272153,-10.498042276879076)"><tspan>WATCHED</tspan></text><path d="M130.37677689050747,-36.67684655243566 Q82.09223655425478,-17.760645811091628,58.010031909286745,-13.97378965875402 Q33.92782726431871,-10.186933506416413,33.92782726431871,-10.186933506416413" stroke="#A5ABB6" stroke-width="1" fill="none"/><polygon points="27.506728603534015,-9.177234547087949 36.94116465041277,-7.1177645965048315 35.85379654036673,-14.032793923503736" fill="#A5ABB6"/><text x="82.12226931583393" y="-23.596267920258832" text-anchor="middle" dominant-baseline="alphabetic" font-size="6" font-family="&quot;Open Sans&quot;, sans-serif" fill="#6f757eff" transform="rotate(-15.081741676247509,82.12226931583393,-20.596267920258832)"><tspan>WATCHED</tspan></text><path d="M128.92362190506006,-42.071877550041094 Q76.71147142091685,-33.906523501671394,54.46604199134829,-25.21367850249169 Q32.22061256177974,-16.52083350331198,32.22061256177974,-16.52083350331198" stroke="#A5ABB6" stroke-width="1" fill="none"/><polygon points="26.166437218528888,-14.155043801505537 35.82302830246431,-14.170812049948614 33.27525477744199,-20.690693188834146" fill="#A5ABB6"/><text x="78.64179432716838" y="-34.60143951417396" text-anchor="middle" dominant-baseline="alphabetic" font-size="6" font-family="&quot;Open Sans&quot;, sans-serif" fill="#6f757eff" transform="rotate(-15.081741676247509,78.64179432716838,-31.601439514173965)"><tspan>WATCHED</tspan></text><path d="M128.3220396607499,-45.5984020373482 Q71.61582642133125,-50.281370590644386,51.02898887199299,-35.566502867363035 Q30.44215132265473,-20.851635144081683,30.44215132265473,-20.851635144081683" stroke="#A5ABB6" stroke-width="1" fill="none"/><polygon points="25.154096965104504,-17.071888973821824 34.511266321083205,-19.45796978626997 30.440770445418742,-25.152797555939443" fill="#A5ABB6"/><text x="75.49896095651678" y="-44.75319459067966" text-anchor="middle" dominant-baseline="alphabetic" font-size="6" font-family="&quot;Open Sans&quot;, sans-serif" fill="#6f757eff" transform="rotate(-15.081741676247509,75.49896095651678,-41.75319459067966)"><tspan>WATCHED</tspan></text><path d="M88.30629823229417,-107.00818880441783 Q65.00451174086,-60.03452814261173,45.37266278716508,-43.926826108737686 Q25.74081383347017,-27.81912407486364,25.74081383347017,-27.81912407486364" stroke="#A5ABB6" stroke-width="1" fill="none"/><polygon points="20.71577646112159,-23.696139790816456 29.89358897578349,-26.69909790669409 25.453452054501906,-32.11067661537717" fill="#A5ABB6"/><text x="61.01403388687108" y="-66.72409229112623" text-anchor="middle" dominant-baseline="alphabetic" font-size="6" font-family="&quot;Open Sans&quot;, sans-serif" fill="#6f757eff" transform="rotate(-51.16594397375837,61.01403388687108,-63.724092291126226)"><tspan>WATCHED</tspan></text><path d="M84.42846874000132,-109.78995831881477 Q51.1082932908408,-69.99314891571558,36.29115656240111,-50.857222748990694 Q21.474019833961428,-31.7212965822658,21.474019833961428,-31.7212965822658" stroke="#A5ABB6" stroke-width="1" fill="none"/><polygon points="17.49452026561299,-26.581881908831225 25.771973722867905,-31.55518707370686 20.237219459169133,-35.84080199346671" fill="#A5ABB6"/><text x="52.029768788911085" y="-73.37438818312793" text-anchor="middle" dominant-baseline="alphabetic" font-size="6" font-family="&quot;Open Sans&quot;, sans-serif" fill="#6f757eff" transform="rotate(-51.16594397375837,52.029768788911085,-70.37438818312793)"><tspan>WATCHED</tspan></text><path d="M79.32666752628516,-114.2412203979746 Q37.19389607684935,-79.92910862767035,26.245735214683663,-58.07517230154316 Q15.297574352517978,-36.22123597541598,15.297574352517978,-36.22123597541598" stroke="#A5ABB6" stroke-width="1" fill="none"/><polygon points="12.38617831119262,-30.40971525442091 19.546622448948153,-36.888761461238886 13.288061672491924,-40.02411104420466" fill="#A5ABB6"/><text x="42.25300850812546" y="-80.58016840718281" text-anchor="middle" dominant-baseline="alphabetic" font-size="6" font-family="&quot;Open Sans&quot;, sans-serif" fill="#6f757eff" transform="rotate(-51.16594397375837,42.25300850812546,-77.58016840718281)"><tspan>WATCHED</tspan></text><path d="M9.310177804587225,-141.03806877973065 Q10.589301808667436,-88.47035915569234,7.589669260188532,-64.1983853379368 Q4.590036711709628,-39.92641152018125,4.590036711709628,-39.92641152018125" stroke="#A5ABB6" stroke-width="1" fill="none"/><polygon points="3.792804406279899,-33.47548750488087 8.370238991267422,-41.97825720775769 1.4230900517131642,-42.83681507514356" fill="#A5ABB6"/><text x="8.769704533407932" y="-92.47629965282414" text-anchor="middle" dominant-baseline="alphabetic" font-size="6" font-family="&quot;Open Sans&quot;, sans-serif" fill="#6f757eff" transform="rotate(-87.14118955540502,8.769704533407932,-89.47629965282414)"><tspan>WATCHED</tspan></text><path d="M0.160573315945983,-141.49626993166274 Q-6.399338969991564,-88.32849609183228,-5.810769425642301,-64.3728439042844 Q-5.222199881293038,-40.41719171673651,-5.222199881293038,-40.41719171673651" stroke="#A5ABB6" stroke-width="1" fill="none"/><polygon points="-5.06254871198739,-33.919152666058274 -1.784660072968466,-43.00240351970041 -8.782548281391184,-42.83047149121741" fill="#A5ABB6"/><text x="-4.465076126332546" y="-92.64261345801594" text-anchor="middle" dominant-baseline="alphabetic" font-size="6" font-family="&quot;Open Sans&quot;, sans-serif" fill="#6f757eff" transform="rotate(-87.14118955540502,-4.465076126332546,-89.64261345801594)"><tspan>WATCHED</tspan></text><path d="M-72.96494768536067,-120.69341401103964 Q-41.30107880971526,-79.346020527569,-29.59723807240777,-58.16596302682794 Q-17.893397335100286,-36.98590552608688,-17.893397335100286,-36.98590552608688" stroke="#A5ABB6" stroke-width="1" fill="none"/><polygon points="-14.749628539297252,-31.296730035865547 -16.039136992597655,-40.86684852775826 -22.16594136668217,-37.4812513630473" fill="#A5ABB6"/><text x="-43.36512565997287" y="-82.09284014806613" text-anchor="middle" dominant-baseline="alphabetic" font-size="6" font-family="&quot;Open Sans&quot;, sans-serif" fill="#6f757eff" transform="rotate(56.848660019943196,-43.36512565997287,-79.09284014806613)"><tspan>WATCHED</tspan></text><path d="M-80.63550693237056,-115.68481644608615 Q-54.959468238194994,-69.24376612508031,-40.542001820589526,-50.427146827261836 Q-26.124535402984062,-31.610527529443353,-26.124535402984062,-31.610527529443353" stroke="#A5ABB6" stroke-width="1" fill="none"/><polygon points="-22.171217168628246,-26.450946641627965 -24.86680655352801,-35.723691535563944 -30.42327827886766,-31.46627189856537" fill="#A5ABB6"/><text x="-54.16974470293616" y="-74.44571905642253" text-anchor="middle" dominant-baseline="alphabetic" font-size="6" font-family="&quot;Open Sans&quot;, sans-serif" fill="#6f757eff" transform="rotate(56.848660019943196,-54.16974470293616,-71.44571905642253)"><tspan>WATCHED</tspan></text><polyline points="-129.27362286612876,-52.98972048783157 -35.915193523479104,-17.703533618092376" stroke="#A5ABB6" stroke-width="1" fill="none"/><polygon points="-29.835000643073716,-15.40543559210053 -37.016291848100956,-21.861367486769065 -39.49116664532294,-15.313467461717106" fill="#A5ABB6"/><text x="-82.59440819480393" y="-38.34662705296197" text-anchor="middle" dominant-baseline="alphabetic" font-size="6" font-family="&quot;Open Sans&quot;, sans-serif" fill="#6f757eff" transform="rotate(20.7048203567581,-82.59440819480393,-35.34662705296197)"><tspan>WATCHED</tspan></text><polyline points="-134.22852672985815,32.22503100124746 -37.535294917995884,5.04953743384827" stroke="#A5ABB6" stroke-width="1" fill="none"/><polygon points="-31.277735381665877,3.290859336729464 -40.88902909964832,2.3564969516393464 -38.99506807198191,9.095407221533197" fill="#A5ABB6"/><text x="-85.88191082392702" y="15.637284217547865" text-anchor="middle" dominant-baseline="alphabetic" font-size="6" font-family="&quot;Open Sans&quot;, sans-serif" fill="#6f757eff" transform="rotate(-15.697941648819807,-85.88191082392702,18.637284217547865)"><tspan>WATCHED</tspan></text><g class="node" data-id="4:6e136278-604f-45d4-8611-b608d2dd3db7:33"><circle cx="-2.126125506739893" cy="-3.8634150289988707" r="28" fill="#c7aff5"/><text x="-2.126125506739893" y="-3.8634150289988707" text-anchor="middle" dominant-baseline="auto" font-size="9.256198347107437" font-family="&quot;Open Sans&quot;, sans-serif" fill="#1a1b1d"><tspan>4:6e136</tspan></text><text x="-2.126125506739893" y="5.392783318108567" text-anchor="middle" dominant-baseline="auto" font-size="9.256198347107437" font-family="&quot;Open Sans&quot;, sans-serif" fill="#1a1b1d"><tspan>278-604f</tspan></text></g><g class="node" data-id="4:6e136278-604f-45d4-8611-b608d2dd3db7:34"><circle cx="-107.28876364402304" cy="127.98384228563378" r="28" fill="#c7aff5"/><text x="-107.28876364402304" y="127.98384228563378" text-anchor="middle" dominant-baseline="auto" font-size="9.256198347107437" font-family="&quot;Open Sans&quot;, sans-serif" fill="#1a1b1d"><tspan>4:6e136</tspan></text><text x="-107.28876364402304" y="137.24004063274123" text-anchor="middle" dominant-baseline="auto" font-size="9.256198347107437" font-family="&quot;Open Sans&quot;, sans-serif" fill="#1a1b1d"><tspan>278-604f</tspan></text></g><g class="node" data-id="4:6e136278-604f-45d4-8611-b608d2dd3db7:35"><circle cx="-10.55748334164652" cy="165.00292762923297" r="28" fill="#c7aff5"/><text x="-10.55748334164652" y="165.00292762923297" text-anchor="middle" dominant-baseline="auto" font-size="9.256198347107437" font-family="&quot;Open Sans&quot;, sans-serif" fill="#1a1b1d"><tspan>4:6e136</tspan></text><text x="-10.55748334164652" y="174.2591259763404" text-anchor="middle" dominant-baseline="auto" font-size="9.256198347107437" font-family="&quot;Open Sans&quot;, sans-serif" fill="#1a1b1d"><tspan>278-604f</tspan></text></g><g class="node" data-id="4:6e136278-604f-45d4-8611-b608d2dd3db7:36"><circle cx="90.08254996750819" cy="137.11443600464497" r="28" fill="#c7aff5"/><text x="90.08254996750819" y="137.11443600464497" text-anchor="middle" dominant-baseline="auto" font-size="9.256198347107437" font-family="&quot;Open Sans&quot;, sans-serif" fill="#1a1b1d"><tspan>4:6e136</tspan></text><text x="90.08254996750819" y="146.37063435175241" text-anchor="middle" dominant-baseline="auto" font-size="9.256198347107437" font-family="&quot;Open Sans&quot;, sans-serif" fill="#1a1b1d"><tspan>278-604f</tspan></text></g><g class="node" data-id="4:6e136278-604f-45d4-8611-b608d2dd3db7:37"><circle cx="156.69233944588746" cy="56.65651584585777" r="28" fill="#c7aff5"/><text x="156.69233944588746" y="56.65651584585777" text-anchor="middle" dominant-baseline="auto" font-size="9.256198347107437" font-family="&quot;Open Sans&quot;, sans-serif" fill="#1a1b1d"><tspan>4:6e136</tspan></text><text x="156.69233944588746" y="65.91271419296521" text-anchor="middle" dominant-baseline="auto" font-size="9.256198347107437" font-family="&quot;Open Sans&quot;, sans-serif" fill="#1a1b1d"><tspan>278-604f</tspan></text></g><g class="node" data-id="4:6e136278-604f-45d4-8611-b608d2dd3db7:38"><circle cx="160.53281384838183" cy="-47.696562086069235" r="28" fill="#c7aff5"/><text x="160.53281384838183" y="-47.696562086069235" text-anchor="middle" dominant-baseline="auto" font-size="9.256198347107437" font-family="&quot;Open Sans&quot;, sans-serif" fill="#1a1b1d"><tspan>4:6e136</tspan></text><text x="160.53281384838183" y="-38.4403637389618" text-anchor="middle" dominant-baseline="auto" font-size="9.256198347107437" font-family="&quot;Open Sans&quot;, sans-serif" fill="#1a1b1d"><tspan>278-604f</tspan></text></g><g class="node" data-id="4:6e136278-604f-45d4-8611-b608d2dd3db7:39"><circle cx="103.71564515724582" cy="-135.34391742205526" r="28" fill="#c7aff5"/><text x="103.71564515724582" y="-135.34391742205526" text-anchor="middle" dominant-baseline="auto" font-size="9.256198347107437" font-family="&quot;Open Sans&quot;, sans-serif" fill="#1a1b1d"><tspan>4:6e136</tspan></text><text x="103.71564515724582" y="-126.08771907494781" text-anchor="middle" dominant-baseline="auto" font-size="9.256198347107437" font-family="&quot;Open Sans&quot;, sans-serif" fill="#1a1b1d"><tspan>278-604f</tspan></text></g><g class="node" data-id="4:6e136278-604f-45d4-8611-b608d2dd3db7:40"><circle cx="6.324784133478597" cy="-173.09449182293716" r="28" fill="#c7aff5"/><text x="6.324784133478597" y="-173.09449182293716" text-anchor="middle" dominant-baseline="auto" font-size="9.256198347107437" font-family="&quot;Open Sans&quot;, sans-serif" fill="#1a1b1d"><tspan>4:6e136</tspan></text><text x="6.324784133478597" y="-163.83829347582972" text-anchor="middle" dominant-baseline="auto" font-size="9.256198347107437" font-family="&quot;Open Sans&quot;, sans-serif" fill="#1a1b1d"><tspan>278-604f</tspan></text></g><g class="node" data-id="4:6e136278-604f-45d4-8611-b608d2dd3db7:41"><circle cx="-94.22709063379243" cy="-144.86966414503547" r="28" fill="#c7aff5"/><text x="-94.22709063379243" y="-144.86966414503547" text-anchor="middle" dominant-baseline="auto" font-size="9.256198347107437" font-family="&quot;Open Sans&quot;, sans-serif" fill="#1a1b1d"><tspan>4:6e136</tspan></text><text x="-94.22709063379243" y="-135.61346579792803" text-anchor="middle" dominant-baseline="auto" font-size="9.256198347107437" font-family="&quot;Open Sans&quot;, sans-serif" fill="#1a1b1d"><tspan>278-604f</tspan></text></g><g class="node" data-id="4:6e136278-604f-45d4-8611-b608d2dd3db7:42"><circle cx="-159.5604336659694" cy="-63.36801955726752" r="28" fill="#c7aff5"/><text x="-159.5604336659694" y="-63.36801955726752" text-anchor="middle" dominant-baseline="auto" font-size="9.256198347107437" font-family="&quot;Open Sans&quot;, sans-serif" fill="#1a1b1d"><tspan>4:6e136</tspan></text><text x="-159.5604336659694" y="-54.11182121016009" text-anchor="middle" dominant-baseline="auto" font-size="9.256198347107437" font-family="&quot;Open Sans&quot;, sans-serif" fill="#1a1b1d"><tspan>278-604f</tspan></text></g><g class="node" data-id="4:6e136278-604f-45d4-8611-b608d2dd3db7:43"><circle cx="-164.76440781684911" cy="41.84584002342158" r="28" fill="#c7aff5"/><text x="-164.76440781684911" y="41.84584002342158" text-anchor="middle" dominant-baseline="auto" font-size="9.256198347107437" font-family="&quot;Open Sans&quot;, sans-serif" fill="#1a1b1d"><tspan>4:6e136</tspan></text><text x="-164.76440781684911" y="51.102038370529016" text-anchor="middle" dominant-baseline="auto" font-size="9.256198347107437" font-family="&quot;Open Sans&quot;, sans-serif" fill="#1a1b1d"><tspan>278-604f</tspan></text></g></g></svg>